nColumns=28
nRows=78
DataType=double
version=3
OpenSimVersion=4.1
endheader
time	ground_force_1_vx	ground_force_1_vy	ground_force_1_vz	ground_force_1_px	ground_force_1_py	ground_force_1_pz	ground_force_1_mx	ground_force_1_my	ground_force_1_mz	ground_force_2_vx	ground_force_2_vy	ground_force_2_vz	ground_force_2_px	ground_force_2_py	ground_force_2_pz	ground_force_2_mx	ground_force_2_my	ground_force_2_mz	ground_force_3_vx	ground_force_3_vy	ground_force_3_vz	ground_force_3_px	ground_force_3_py	ground_force_3_pz	ground_force_3_mx	ground_force_3_my	ground_force_3_mz
3.36	-55.187	448.321	-28.8309	-0.200282	0.006	-0.460491	0	5.46983	0	-61.0988	283.851	40.7091	-0.111952	0.006	-0.759395	0	0.0428434	0	0	0	0	0	0	0	0	0	0
3.37	-54.8356	440.85	-28.9962	-0.197835	0.006	-0.461067	0	5.26117	0	-54.9501	277.583	39.6951	-0.111376	0.006	-0.75909	0	-0.0282194	0	0	0	0	0	0	0	0	0	0
3.38	-53.7262	433.828	-28.8131	-0.196434	0.006	-0.461823	0	4.88134	0	-48.313	272.66	38.949	-0.110943	0.006	-0.758781	0	-0.0717222	0	0	0	0	0	0	0	0	0	0
3.39	-52.3266	428.906	-28.1221	-0.196051	0.006	-0.462483	0	4.44391	0	-42.0164	268.415	38.3455	-0.110412	0.006	-0.758388	0	-0.0981836	0	0	0	0	0	0	0	0	0	0
3.4	-50.6279	424.848	-27.3591	-0.196284	0.006	-0.463101	0	4.10208	0	-36.7785	264.194	37.5852	-0.109644	0.006	-0.758111	0	-0.114704	0	0	0	0	0	0	0	0	0	0
3.41	-48.9527	419.489	-27.3533	-0.196581	0.006	-0.463421	0	3.89809	0	-32.5583	258.792	36.3161	-0.108928	0.006	-0.757549	0	-0.109192	0	0	0	0	0	0	0	0	0	0
3.42	-47.3648	411.396	-28.3682	-0.197104	0.006	-0.463741	0	3.81318	0	-29.0307	251.74	34.5154	-0.10831	0.006	-0.756687	0	-0.0650873	0	0	0	0	0	0	0	0	0	0
3.43	-45.0465	403.189	-29.4412	-0.198422	0.006	-0.463956	0	3.67704	0	-26.2096	243.466	32.5409	-0.107681	0.006	-0.755787	0	-0.0115707	0	0	0	0	0	0	0	0	0	0
3.44	-42.3482	396.063	-29.7625	-0.200503	0.006	-0.464159	0	3.40452	0	-23.9929	234.406	30.5292	-0.106835	0.006	-0.75481	0	0.0533853	0	0	0	0	0	0	0	0	0	0
3.45	-40.2219	389.956	-29.4632	-0.20314	0.006	-0.464436	0	3.00077	0	-22.0838	224.227	28.4775	-0.10592	0.006	-0.753703	0	0.149792	0	0	0	0	0	0	0	0	0	0
3.46	-38.125	383.715	-28.9623	-0.206349	0.006	-0.464856	0	2.57157	0	-20.6579	212.965	26.3759	-0.105048	0.006	-0.752362	0	0.240152	0	0	0	0	0	0	0	0	0	0
3.47	-35.0885	375.459	-28.5641	-0.209889	0.006	-0.465342	0	2.15642	0	-20.0255	201.364	24.5043	-0.103872	0.006	-0.751083	0	0.306326	0	0	0	0	0	0	0	0	0	0
3.48	-31.8085	364.103	-28.2243	-0.213138	0.006	-0.46592	0	1.73556	0	-19.7826	189.689	22.8434	-0.102751	0.006	-0.74973	0	0.362474	0	0	0	0	0	0	0	0	0	0
3.49	-30.0921	349.945	-27.4536	-0.215996	0.006	-0.466737	0	1.29854	0	-19.2744	178.202	21.3809	-0.101549	0.006	-0.748212	0	0.397221	0	0	0	0	0	0	0	0	0	0
3.5	-29.9454	334.26	-26.0309	-0.218924	0.006	-0.467633	0	0.841093	0	-18.2197	167.52	20.1451	-0.100179	0.006	-0.746692	0	0.421519	0	0	0	0	0	0	0	0	0	0
3.51	-30.2248	318.145	-24.4795	-0.222539	0.006	-0.468606	0	0.425486	0	-16.6752	157.599	19.2576	-0.0990507	0.006	-0.745207	0	0.428365	0	0	0	0	0	0	0	0	0	0
3.52	-29.6427	301.864	-23.2072	-0.226648	0.006	-0.469433	0	0.108041	0	-14.9854	148.685	18.7316	-0.0979751	0.006	-0.743979	0	0.382169	0	0	0	0	0	0	0	0	0	0
3.53	-27.6525	283.914	-22.0164	-0.230954	0.006	-0.470594	0	-0.0860328	0	-13.5923	141.054	18.3169	-0.0968154	0.006	-0.74287	0	0.325546	0	0	0	0	0	0	0	0	0	0
3.54	-24.4898	265.494	-20.7073	-0.234885	0.006	-0.472088	0	-0.191085	0	-12.8358	134.988	17.8629	-0.0954996	0.006	-0.741931	0	0.272934	0	0	0	0	0	0	0	0	0	0
3.55	-21.101	248.137	-18.9121	-0.237961	0.006	-0.473987	0	-0.240794	0	-12.244	130.486	17.4421	-0.0944038	0.006	-0.74147	0	0.280211	0	0	0	0	0	0	0	0	0	0
3.56	-18.9424	233.171	-16.1789	-0.23969	0.006	-0.476118	0	-0.286056	0	-11.3523	126.945	16.918	-0.0940803	0.006	-0.740821	0	0.318227	0	0	0	0	0	0	0	0	0	0
3.57	-18.4906	220.591	-12.8602	-0.240133	0.006	-0.478145	0	-0.347068	0	-10.4356	124.677	16.3658	-0.0938371	0.006	-0.739827	0	0.337759	0	0	0	0	0	0	0	0	0	0
3.58	-19.104	207.068	-9.96414	-0.240792	0.006	-0.480421	0	-0.393403	0	-9.72484	123.452	15.752	-0.093016	0.006	-0.739397	0	0.3947	0	0	0	0	0	0	0	0	0	0
3.59	-19.2313	190.145	-7.71013	-0.243528	0.006	-0.483476	0	-0.391085	0	-9.15089	121.654	14.936	-0.0916579	0.006	-0.738835	0	0.3927	0	0	0	0	0	0	0	0	0	0
3.6	-17.9111	172.655	-5.96588	-0.249085	0.006	-0.486738	0	-0.346947	0	-8.80647	118.933	14.0823	-0.0902069	0.006	-0.737629	0	0.374533	0	0	0	0	0	0	0	0	0	0
3.61	-15.7724	159.528	-4.42059	-0.256869	0.006	-0.489353	0	-0.278459	0	-8.63736	115.422	13.1812	-0.0889749	0.006	-0.736188	0	0.395249	0	0	0	0	0	0	0	0	0	0
3.62	-13.4103	151.291	-2.92788	-0.26593	0.006	-0.491469	0	-0.181253	0	-8.26541	110.799	12.1728	-0.087415	0.006	-0.734497	0	0.420625	0	0	0	0	0	0	0	0	0	0
3.63	-10.7158	144.999	-2.58571	-0.274911	0.006	-0.493594	0	-0.172474	0	-7.6144	105.903	11.2668	-0.0861302	0.006	-0.732712	0	0.446745	0	0	0	0	0	0	0	0	0	0
3.64	-7.83021	140.428	-3.72131	-0.282544	0.006	-0.494904	0	-0.283123	0	-7.09091	101.398	10.6314	-0.0848186	0.006	-0.731896	0	0.474145	0	0	0	0	0	0	0	0	0	0
3.65	-4.40255	137.421	-4.59349	-0.288713	0.006	-0.495342	0	-0.35853	0	-6.80714	97.3648	10.3353	-0.0838581	0.006	-0.731052	0	0.445587	0	0	0	0	0	0	0	0	0	0
3.66	-0.682202	137.87	-5.33571	-0.292925	0.006	-0.495069	0	-0.414772	0	-6.70905	93.7826	10.3154	-0.0826715	0.006	-0.729358	0	0.357511	0	0	0	0	0	0	0	0	0	0
3.67	2.0028	144.918	-6.4837	-0.29323	0.006	-0.493215	0	-0.432103	0	-6.84993	91.1284	10.3707	-0.0814432	0.006	-0.728387	0	0.298628	0	0	0	0	0	0	0	0	0	0
3.68	2.55633	156.608	-7.02333	-0.289626	0.006	-0.490408	0	-0.313863	0	-7.14775	88.8709	10.4298	-0.0804794	0.006	-0.727948	0	0.263033	0	0	0	0	0	0	0	0	0	0
3.69	0.524975	169.438	-6.66205	-0.285061	0.006	-0.488144	0	-0.110902	0	-7.56195	86.8261	10.6385	-0.0797174	0.006	-0.727175	0	0.156376	0	0	0	0	0	0	0	0	0	0
3.7	-2.17473	183.334	-6.21291	-0.282279	0.006	-0.486569	0	0.0748928	0	-8.14003	85.7305	10.8454	-0.0796369	0.006	-0.72698	0	0.0485004	0	0	0	0	0	0	0	0	0	0
3.71	-2.1314	200.686	-5.70434	-0.282203	0.006	-0.485009	0	0.162313	0	-8.82069	85.275	11.0014	-0.0790484	0.006	-0.726922	0	-0.0612323	0	0	0	0	0	0	0	0	0	0
3.72	0.757014	229.13	-5.23013	-0.282071	0.006	-0.482708	0	0.132858	0	-9.52875	85.4569	11.117	-0.0777095	0.006	-0.72734	0	-0.145698	0	0	0	0	0	0	0	0	0	0
3.73	3.18668	271.325	-4.84709	-0.279089	0.006	-0.479582	0	0.0941068	0	-10.2829	86.4317	11.2326	-0.077423	0.006	-0.727953	0	-0.218234	0	0	0	0	0	0	0	0	0	0
3.74	4.12724	319.329	-5.09428	-0.274209	0.006	-0.47684	0	0.0354423	0	-11.21	88.5222	11.455	-0.0776113	0.006	-0.729169	0	-0.301718	0	0	0	0	0	0	0	0	0	0
3.75	2.32459	367.396	-7.64188	-0.268702	0.006	-0.474607	0	-0.0661702	0	-12.505	91.5256	11.818	-0.0779653	0.006	-0.730119	0	-0.43973	0	0	0	0	0	0	0	0	0	0
3.76	-1.2521	413.331	-12.2234	-0.263121	0.006	-0.472551	0	-0.151653	0	-13.7939	94.6916	12.3279	-0.0781253	0.006	-0.731184	0	-0.546371	0	0	0	0	0	0	0	0	0	0
3.77	-4.56284	456.571	-17.4987	-0.257716	0.006	-0.470651	0	-0.144913	0	-14.8881	97.3653	12.7686	-0.0780369	0.006	-0.732644	0	-0.587772	0	0	0	0	0	0	0	0	0	0
3.78	-7.57402	496.575	-22.6543	-0.252621	0.006	-0.469163	0	-0.0592426	0	-15.6905	99.471	13.0458	-0.0777631	0.006	-0.733563	0	-0.6808	0	0	0	0	0	0	0	0	0	0
3.79	-10.8958	532.67	-27.0195	-0.247989	0.006	-0.467986	0	0.0240223	0	-16.116	101.235	13.1613	-0.0782536	0.006	-0.734269	0	-0.742204	0	0	0	0	0	0	0	0	0	0
3.8	-14.8622	563.615	-30.3243	-0.243844	0.006	-0.467014	0	0.0556863	0	-16.5132	103.186	13.2015	-0.0790482	0.006	-0.734591	0	-0.774629	0	0	0	0	0	0	0	0	0	0
3.81	-19.2714	586.727	-32.5783	-0.240154	0.006	-0.466412	0	0.067807	0	-16.9258	105.529	13.0943	-0.0797078	0.006	-0.734941	0	-0.777383	0	0	0	0	0	0	0	0	0	0
3.82	-23.2833	600.415	-33.901	-0.236883	0.006	-0.466177	0	0.0576915	0	-16.9546	107.303	12.691	-0.0797636	0.006	-0.734746	0	-0.75891	0	0	0	0	0	0	0	0	0	0
3.83	-26.4742	606.128	-34.2474	-0.23386	0.006	-0.466154	0	0.0187659	0	-16.3971	108.005	11.9769	-0.0798671	0.006	-0.734206	0	-0.725581	0	0	0	0	0	0	0	0	0	0
3.84	-29.0925	605.846	-33.5839	-0.230958	0.006	-0.466219	0	0.0052076	0	-15.4711	107.684	10.9663	-0.080162	0.006	-0.733625	0	-0.602345	0	0	0	0	0	0	0	0	0	0
3.85	-31.3382	600.491	-32.2623	-0.22805	0.006	-0.466362	0	0.014935	0	-14.6979	106.495	9.77516	-0.0801733	0.006	-0.732199	0	-0.455882	0	0	0	0	0	0	0	0	0	0
3.86	-33.7888	592.186	-30.7919	-0.224935	0.006	-0.46661	0	0.00488865	0	-14.5068	105.021	8.74079	-0.079862	0.006	-0.730278	0	-0.3891	0	0	0	0	0	0	0	0	0	0
3.87	-36.8146	582.34	-29.5741	-0.221615	0.006	-0.466816	0	-0.0417245	0	-14.5142	103.425	7.88614	-0.0796023	0.006	-0.728843	0	-0.326597	0	0	0	0	0	0	0	0	0	0
3.88	-39.6193	569.89	-28.8227	-0.218362	0.006	-0.467114	0	-0.0804359	0	-14.3458	101.858	7.08356	-0.0790837	0.006	-0.728026	0	-0.238788	0	0	0	0	0	0	0	0	0	0
3.89	-40.9461	555.278	-28.6018	-0.215521	0.006	-0.467323	0	-0.160763	0	-14.1467	100.465	6.45186	-0.0789978	0.006	-0.727351	0	-0.20274	0	0	0	0	0	0	0	0	0	0
3.9	-40.87	540.061	-28.508	-0.21314	0.006	-0.467426	0	-0.251716	0	-13.8762	98.5921	5.98318	-0.0787697	0.006	-0.726371	0	-0.195655	0	0	0	0	0	0	0	0	0	0
3.91	-40.4044	525.863	-28.0663	-0.21104	0.006	-0.467519	0	-0.336062	0	-13.3436	96.0816	5.55777	-0.0779578	0.006	-0.725405	0	-0.1608	0	0	0	0	0	0	0	0	0	0
3.92	-40.1257	512.896	-27.2262	-0.209155	0.006	-0.467677	0	-0.392746	0	-12.8132	93.3069	5.29072	-0.0774424	0.006	-0.723452	0	-0.180201	0	0	0	0	0	0	0	0	0	0
3.93	-39.9111	499.621	-26.2023	-0.207447	0.006	-0.467951	0	-0.439153	0	-12.4723	91.1688	5.18873	-0.077865	0.006	-0.72171	0	-0.194489	0	0	0	0	0	0	0	0	0	0
3.94	-39.3332	485.608	-25.1062	-0.206223	0.006	-0.46829	0	-0.534452	0	-12.3806	89.729	5.26675	-0.0782954	0.006	-0.721069	0	-0.204957	0	0	0	0	0	0	0	0	0	0
3.95	-38.0116	472.283	-24.0906	-0.205899	0.006	-0.468567	0	-0.688505	0	-12.3949	88.729	5.57812	-0.0781449	0.006	-0.721143	0	-0.244066	0	0	0	0	0	0	0	0	0	0
3.96	-35.756	461.373	-22.9573	-0.206778	0.006	-0.468753	0	-0.888227	0	-12.2772	88.2472	6.09394	-0.0784458	0.006	-0.721545	0	-0.26898	0	0	0	0	0	0	0	0	0	0
3.97	-32.6279	454.174	-22.1238	-0.20886	0.006	-0.468903	0	-1.05877	0	-11.9865	88.1678	6.74181	-0.0781779	0.006	-0.721832	0	-0.287277	0	0	0	0	0	0	0	0	0	0
3.98	-29.3373	450.044	-21.9881	-0.211569	0.006	-0.469051	0	-1.15542	0	-11.8395	88.4479	7.61909	-0.0777685	0.006	-0.722309	0	-0.372819	0	0	0	0	0	0	0	0	0	0
3.99	-26.2814	446.475	-22.3428	-0.214392	0.006	-0.469103	0	-1.23483	0	-11.7884	89.5354	8.74082	-0.0786604	0.006	-0.724192	0	-0.469337	0	0	0	0	0	0	0	0	0	0
4	-23.6562	441.661	-22.8872	-0.217099	0.006	-0.469157	0	-1.30079	0	-11.6102	91.0386	9.99721	-0.0793924	0.006	-0.725765	0	-0.53976	0	0	0	0	0	0	0	0	0	0
4.01	-21.9029	435.902	-22.9387	-0.219695	0.006	-0.469391	0	-1.32934	0	-11.2684	92.7535	11.3449	-0.0798979	0.006	-0.72681	0	-0.58889	0	0	0	0	0	0	0	0	0	0
4.02	-20.8376	429.422	-22.2874	-0.222241	0.006	-0.469886	0	-1.34768	0	-10.839	94.9612	12.5287	-0.0804685	0.006	-0.72824	0	-0.646737	0	0	0	0	0	0	0	0	0	0
4.03	-20.5786	421.446	-21.4288	-0.22473	0.006	-0.470393	0	-1.34681	0	-10.5029	98.0058	13.4944	-0.0806178	0.006	-0.730383	0	-0.663817	0	0	0	0	0	0	0	0	0	0
4.04	-21.3709	411.289	-20.3881	-0.227407	0.006	-0.471056	0	-1.30666	0	-10.2709	101.491	14.251	-0.0813857	0.006	-0.732205	0	-0.608879	0	0	0	0	0	0	0	0	0	0
4.05	-22.3284	399.878	-19.0807	-0.230294	0.006	-0.471756	0	-1.24906	0	-10.2309	104.809	14.9163	-0.0823444	0.006	-0.733728	0	-0.59422	0	0	0	0	0	0	0	0	0	0
4.06	-22.5132	387.064	-17.2026	-0.233247	0.006	-0.472587	0	-1.1432	0	-10.4433	107.538	15.4092	-0.0831291	0.006	-0.734967	0	-0.62612	0	0	0	0	0	0	0	0	0	0
4.07	-21.7966	373.221	-15.2264	-0.236049	0.006	-0.473459	0	-1.03077	0	-10.753	109.237	15.6492	-0.0839819	0.006	-0.735526	0	-0.652271	0	0	0	0	0	0	0	0	0	0
4.08	-21.8172	359.285	-13.6304	-0.238545	0.006	-0.47437	0	-0.925914	0	-11.0558	110.217	15.6261	-0.084939	0.006	-0.735975	0	-0.679742	0	0	0	0	0	0	0	0	0	0
4.09	-24.3004	346.515	-12.397	-0.24061	0.006	-0.475444	0	-0.787507	0	-11.4442	110.593	15.4744	-0.0854504	0.006	-0.736156	0	-0.698585	0	0	0	0	0	0	0	0	0	0
4.1	-28.0562	334.511	-11.396	-0.242666	0.006	-0.476635	0	-0.618542	0	-12.0777	110.206	15.2331	-0.0854436	0.006	-0.735627	0	-0.747811	0	0	0	0	0	0	0	0	0	0
4.11	-31.0858	322.621	-10.7887	-0.245141	0.006	-0.477818	0	-0.478606	0	-12.7515	108.786	14.7856	-0.085363	0.006	-0.734602	0	-0.80648	0	0	0	0	0	0	0	0	0	0
4.12	-32.6551	311.958	-10.7577	-0.248129	0.006	-0.478506	0	-0.376488	0	-13.1387	106.301	14.0542	-0.0850826	0.006	-0.733604	0	-0.842637	0	0	0	0	0	0	0	0	0	0
4.13	-32.8858	302.391	-11.2698	-0.251489	0.006	-0.478425	0	-0.255948	0	-13.3674	102.692	12.9873	-0.0847975	0.006	-0.732345	0	-0.827472	0	0	0	0	0	0	0	0	0	0
